# xmcd
#
# Track frame offsets:
#	150
#	14359
#	37492
#	64081
#	83758
#	102312
#	120948
#	147648
#	160182
#	176661
#	190235
#
# Disc length: 2808 seconds
#
# Revision: 1
# Processed by: cddbd v1.5PL3 Copyright (c) Steve Scherf et al.
# Submitted via: EasyCDDAExtractor 7.0.5.1
#
DISCID=970af60b
DTITLE=Bill Perry - Fire It Up
DYEAR=2001
DGENRE=Blues
TTITLE0=Itchin' for It
TTITLE1=Clean Thing
TTITLE2=Fire It Up
TTITLE3=Pressure
TTITLE4=I Can't See The Light of Day
TTITLE5=Born In New-York
TTITLE6=Thinkin' of You
TTITLE7=G and L Jump
TTITLE8=I Ain't Lyin'
TTITLE9=Heaven in a Pontiac
TTITLE10=Cheatin' Blues
EXTD=
EXTT0=
EXTT1=
EXTT2=
EXTT3=
EXTT4=
EXTT5=
EXTT6=
EXTT7=
EXTT8=
EXTT9=
EXTT10=
PLAYORDER=
